# xmcd
#
# Track frame offsets:
#	150
#	19655
#	40067
#	61567
#	80115
#	100862
#	119290
#	135182
#	155357
#	174700
#	193105
#	215070
#
# Disc length: 3221 seconds
#
# Revision: 15
# Processed by: cddbd v1.5.2PL0 Copyright (c) Steve Scherf et al.
# Submitted via: audiograbber 1.83.01
#
DISCID=9a0c930c
DTITLE=Willie Nelson - The Great Divide
DYEAR=2002
DGENRE=Country
TTITLE0=Willie Nelson - Maria (Shut Up And Kiss Me)
TTITLE1=Willie Nelson and Lee Ann Womack - Mendocino County Line
TTITLE2=Willie Nelson and Kid Rock - Last Stand In Open Country
TTITLE3=Willie Nelson - Won't Catch Me Cryin'
TTITLE4=Willie Nelson and Sheryl Crow - Be There For You
TTITLE5=Willie Nelson - The Great Divide
TTITLE6=Willie Nelson - Just Dropped In (To See What Condition My Condition Was
TTITLE6=In)
TTITLE7=Willie Nelson - This Face
TTITLE8=Willie Nelson and Brian McKnight - Don't Fade Away
TTITLE9=Willie Nelson - Time After Time
TTITLE10=Willie Nelson - Recollection Phoenix
TTITLE11=Willie Nelson and Bonnie Raiit - You Remain
EXTD=
EXTT0=
EXTT1=
EXTT2=
EXTT3=
EXTT4=
EXTT5=
EXTT6=
EXTT7=
EXTT8=
EXTT9=
EXTT10=
EXTT11=
PLAYORDER=
